<svg  xmlns="http://www.w3.org/2000/svg" width="852" height="122"><g fill="#000" fill-rule="nonzero"><path d="M43.129 50.376V31.05H9.725v19.326c0 1.585-.951 2.535-2.537 2.535H2.854c-1.48 0-2.431-.95-2.431-2.535V4.224c0-1.584.951-2.534 2.431-2.534h4.334c1.586 0 2.537.95 2.537 2.534v18.377H43.13V4.224c0-1.584.95-2.534 2.43-2.534h4.335c1.585 0 2.537.95 2.537 2.534v46.152c0 1.585-.952 2.535-2.537 2.535H45.56c-1.48 0-2.431-.95-2.431-2.535zM95.665 1.69c1.586 0 2.537.528 3.171 1.795l23.679 45.941c.317.528.422 1.056.422 1.479 0 1.161-.845 2.006-2.325 2.006h-4.757c-1.586 0-2.431-.528-3.171-1.795l-5.18-10.456H77.8l-5.18 10.456c-.633 1.373-1.585 1.795-3.17 1.795h-4.757c-1.48 0-2.22-.845-2.22-2.006 0-.423.106-.951.423-1.479l23.678-45.94c.634-1.163 1.586-1.796 3.066-1.796h6.025zM82.029 32.21h21.247l-10.57-21.227L82.028 32.21zM142.916 15.736v34.64c0 1.585-.951 2.535-2.537 2.535h-4.334c-1.48 0-2.431-.95-2.431-2.535V4.224c0-1.584.951-2.534 2.431-2.534h4.017c1.48 0 2.326.422 3.277 1.373l35.729 35.802V4.225c0-1.585.951-2.535 2.643-2.535h4.228c1.48 0 2.431.95 2.431 2.534v46.152c0 1.585-.951 2.535-2.431 2.535h-4.017c-1.586 0-2.325-.422-3.277-1.373l-35.729-35.802zM226.002 45.202c8.034 0 15.962-2.324 15.962-7.816 0-4.752-5.92-5.703-16.28-6.548-13.424-1.056-24.84-3.802-24.84-14.046 0-9.294 9.302-16.053 24.418-16.053 12.896 0 20.402 4.964 22.516 6.654 1.162.95 1.691 1.9 1.691 3.062 0 1.268-.74 2.324-1.797 3.274l-1.374 1.268c-.529.528-1.057.739-1.692.739-.845 0-1.585-.528-2.008-.845-3.805-3.063-9.936-5.597-17.547-5.597-7.4 0-14.588 2.429-14.588 6.864 0 4.436 7.082 5.387 15.962 6.126 16.067 1.267 25.158 4.224 25.158 14.363 0 11.195-11.416 17.215-25.475 17.215-13.53 0-22.516-5.387-25.581-8.238-1.163-1.056-1.586-2.007-1.586-3.063 0-1.478.951-2.429 1.797-3.274l1.374-1.373a2.477 2.477 0 0 1 1.797-.739c.634 0 1.374.317 1.903.845 5.074 4.436 11.628 7.182 20.19 7.182zM262.577 50.376V4.224c0-1.584.951-2.534 2.43-2.534h45.35c1.585 0 2.536.95 2.536 2.534v3.274c0 1.585-.951 2.64-2.537 2.64h-38.583v12.463h27.59c1.585 0 2.642.95 2.642 2.534v3.38c0 1.584-.95 2.535-2.642 2.535h-27.59v13.412h38.583c1.586 0 2.537.95 2.537 2.535v3.38c0 1.584-.951 2.534-2.537 2.534h-45.348c-1.48 0-2.431-.95-2.431-2.535zM376.529 52.911c-1.586 0-2.431-.528-3.065-1.795L349.679 5.28c-.317-.529-.317-1.057-.317-1.479 0-1.162.74-2.007 2.22-2.007h4.757c1.586 0 2.537.528 3.171 1.796l20.085 40.132 19.978-40.132c.74-1.268 1.586-1.796 3.171-1.796h4.757c1.48 0 2.22.845 2.22 2.007 0 .422-.106.95-.317 1.479l-23.678 45.835c-.635 1.267-1.586 1.795-3.172 1.795h-6.025zM419.975 50.376V4.224c0-1.584.951-2.534 2.431-2.534h45.348c1.586 0 2.537.95 2.537 2.534v3.274c0 1.585-.951 2.64-2.537 2.64h-38.583v12.463h27.59c1.585 0 2.642.95 2.642 2.534v3.38c0 1.584-.95 2.535-2.642 2.535h-27.59v13.412h38.583c1.586 0 2.537.95 2.537 2.535v3.38c0 1.584-.951 2.534-2.537 2.534h-45.348c-1.48 0-2.431-.95-2.431-2.535zM490.059 15.736v34.64c0 1.585-.952 2.535-2.537 2.535h-4.334c-1.48 0-2.432-.95-2.432-2.535V4.224c0-1.584.952-2.534 2.432-2.534h4.016c1.48 0 2.326.422 3.277 1.373l35.73 35.802V4.225c0-1.585.95-2.535 2.642-2.535h4.228c1.48 0 2.432.95 2.432 2.534v46.152c0 1.585-.952 2.535-2.432 2.535h-4.016c-1.586 0-2.326-.422-3.277-1.373l-35.73-35.802zM578.324 10.139v40.237c0 1.585-.951 2.535-2.643 2.535h-4.228c-1.48 0-2.431-.95-2.431-2.535V10.14h-21.67c-1.586 0-2.643-.95-2.643-2.64V4.223c0-1.584.952-2.534 2.643-2.534h52.642c1.586 0 2.643.95 2.643 2.534v3.274c0 1.585-.952 2.64-2.643 2.64h-21.67zM612.045 29.043V4.224c0-1.584.951-2.534 2.43-2.534h4.23c1.585 0 2.642.95 2.642 2.534v24.819c0 12.568 7.188 16.264 16.596 16.264 9.408 0 16.702-3.696 16.702-16.264V4.224c0-1.584.951-2.534 2.537-2.534h4.334c1.48 0 2.43.95 2.43 2.534v24.819c0 19.538-11.31 24.819-25.897 24.819-14.694 0-26.004-5.28-26.004-24.819zM674.518 50.376V4.224c0-1.584.951-2.534 2.43-2.534h32.876c12.262 0 18.181 6.336 18.181 15.947 0 7.498-4.334 13.94-13.319 15.63l14.588 16.053c.528.528.74.95.74 1.585 0 1.161-.74 2.006-2.22 2.006h-5.814c-1.585 0-2.431-.634-3.382-1.584l-15.645-17.743H683.82v16.792c0 1.585-.952 2.535-2.537 2.535h-4.334c-1.374 0-2.431-.95-2.431-2.535zm9.302-40.237V25.24h25.687c5.285 0 8.773-3.063 8.773-7.604 0-4.858-3.7-7.393-8.773-7.393H683.82v-.105zM740.162 50.376V4.224c0-1.584.951-2.534 2.431-2.534h45.348c1.586 0 2.537.95 2.537 2.534v3.274c0 1.585-.951 2.64-2.537 2.64h-38.477v12.463h27.484c1.585 0 2.643.95 2.643 2.534v3.38c0 1.584-.952 2.535-2.643 2.535h-27.484v13.412h38.583c1.586 0 2.537.95 2.537 2.535v3.38c0 1.584-.951 2.534-2.537 2.534H742.7c-1.586 0-2.537-.95-2.537-2.535zM825.89 45.202c8.034 0 15.962-2.324 15.962-7.816 0-4.752-5.92-5.703-16.279-6.548-13.425-1.056-24.841-3.802-24.841-14.046 0-9.294 9.302-16.053 24.418-16.053 12.897 0 20.402 4.964 22.516 6.654 1.163.95 1.691 1.9 1.691 3.062 0 1.268-.74 2.324-1.797 3.274l-1.374 1.268c-.528.528-1.057.739-1.691.739-.846 0-1.586-.528-2.009-.845-3.805-3.063-9.936-5.597-17.547-5.597-7.4 0-14.588 2.429-14.588 6.864 0 4.436 7.083 5.387 15.962 6.126 16.068 1.267 25.158 4.224 25.158 14.363 0 11.195-11.416 17.215-25.475 17.215-13.53 0-22.516-5.387-25.581-8.238-1.163-1.056-1.586-2.007-1.586-3.063 0-1.478.952-2.429 1.797-3.274L802 37.914a2.477 2.477 0 0 1 1.798-.739c.634 0 1.374.317 1.902.845 5.074 4.436 11.522 7.182 20.19 7.182z"/><g><path d="M8.25 113.32H.423V80.736H8.25c6.981 0 10.472 3.269 10.472 8.172 0 3.473-2.01 5.924-5.183 7.15 4.02 1.123 6.664 3.575 6.664 7.967 0 6.128-4.76 9.295-11.953 9.295zm-.105-29.724H3.808v11.338h4.337c4.76 0 7.298-2.553 7.298-5.924-.106-3.37-2.433-5.414-7.298-5.414zm.211 13.994H3.808v12.87h4.654c5.183 0 8.356-2.35 8.356-6.435.106-4.29-3.173-6.435-8.462-6.435zM42.098 113.32l-.53-3.269c-2.538 2.145-5.182 3.78-8.355 3.78-4.654 0-6.875-2.554-6.875-6.844V91.053h3.278v15.423c0 2.86 1.376 4.597 4.337 4.597 2.433 0 4.972-1.43 7.51-3.882V91.053h3.279v22.369h-2.644v-.102zM54.05 85.64c-1.27 0-2.327-1.022-2.327-2.248 0-1.226 1.058-2.247 2.327-2.247 1.27 0 2.327 1.021 2.327 2.247S55.32 85.64 54.05 85.64zm-1.587 27.68V90.95h3.174v22.37h-3.174zM63.887 113.32V80.02l3.173-.612v33.91zM91.07 113.32l-.634-3.269c-1.798 2.043-4.02 3.78-7.404 3.78-5.077 0-9.308-3.473-9.308-11.032 0-8.171 4.971-12.155 10.577-12.155 2.327 0 4.443.409 6.03 1.124V80.02l3.278-.612v33.91h-2.538zm-.846-18.692c-1.798-.92-3.49-1.328-5.923-1.328-4.125 0-7.404 3.064-7.404 9.295 0 5.413 2.644 8.376 6.346 8.376 2.75 0 4.866-1.635 6.981-3.984v-12.36zM103.023 85.64c-1.27 0-2.327-1.022-2.327-2.248 0-1.226 1.058-2.247 2.327-2.247 1.27 0 2.327 1.021 2.327 2.247s-1.058 2.247-2.327 2.247zm-1.587 27.68V90.95h3.174v22.37h-3.174zM127.562 113.32V97.896c0-2.86-1.375-4.596-4.336-4.596-2.433 0-4.972 1.43-7.51 3.881v16.139h-3.28V90.95h2.54l.528 3.27c2.539-2.146 5.183-3.78 8.356-3.78 4.654 0 6.876 2.554 6.876 6.843v15.935h-3.174v.102zM146.073 121.9c-6.03 0-10.578-1.94-10.578-5.822 0-2.247 1.799-4.188 5.29-5.925-1.164-.715-1.693-1.532-1.693-2.349 0-1.123.74-2.043 2.327-2.962-2.539-1.226-4.231-3.575-4.231-6.64 0-4.698 4.02-7.66 8.567-7.66 2.327 0 4.337.715 5.924 1.94l5.817-1.838.53 3.065-4.655.51c.74 1.124 1.27 2.452 1.27 3.984 0 4.698-4.02 7.66-8.674 7.66-.635 0-1.375 0-2.01-.204-.952.51-1.48 1.124-1.48 1.634 0 .92.951 1.226 5.182 1.941l1.693.307c5.183.919 7.933 2.349 7.933 5.72-.212 4.187-5.183 6.639-11.212 6.639zm-2.75-10.725c-3.174 1.43-4.654 2.962-4.654 4.698 0 2.35 3.067 3.678 7.615 3.678 4.654 0 7.722-1.737 7.722-3.984 0-1.736-1.481-2.656-5.606-3.473l-2.222-.408c-1.163-.205-2.01-.307-2.855-.511zm2.327-18.386c-3.28 0-5.395 2.35-5.395 5.414 0 2.86 2.116 5.209 5.5 5.209 3.385 0 5.5-2.247 5.5-5.311 0-2.962-2.22-5.312-5.605-5.312zM188.91 113.933c-9.942 0-15.865-6.946-15.865-16.854 0-10.01 6.135-16.955 15.549-16.955 4.125 0 7.404 1.123 9.942 2.86l-.634 3.37c-2.539-1.94-5.606-3.268-9.414-3.268-7.51 0-12.058 5.618-12.058 13.993 0 8.376 4.548 13.994 12.48 13.994 3.174 0 5.501-.715 7.722-2.043v-9.704h-8.144l-.53-2.962h11.953v14.3c-3.067 1.94-6.663 3.269-11 3.269zM211.017 99.326v13.994h-3.279V90.95h2.433l.74 4.597c1.693-2.553 4.443-5.005 8.251-5.107l.529 2.962c-3.808.307-7.087 2.962-8.674 5.924zM232.807 113.83c-6.03 0-10.472-3.983-10.472-11.644 0-7.15 4.231-11.644 9.943-11.644 6.24 0 9.414 5.005 9.414 11.236v.613h-16.078c.106 5.515 2.75 8.784 7.404 8.784 3.068 0 5.818-1.328 8.145-3.269l.529 2.86c-2.327 1.737-5.289 3.065-8.885 3.065zm-7.087-13.89h12.693c-.318-3.984-2.327-6.946-6.135-6.946-3.385 0-5.923 2.45-6.558 6.945zM262 113.32l-.529-2.962c-2.115 1.94-4.865 3.473-8.144 3.473-4.02 0-6.876-2.145-6.876-6.129 0-5.21 4.443-7.66 14.914-8.682v-1.43c0-3.064-1.903-4.29-4.76-4.29-2.75 0-5.394.817-7.932 1.94l-.423-2.757c2.644-1.124 5.288-1.94 8.567-1.94 5.183 0 7.827 2.348 7.827 6.945v15.934H262v-.102zm-.74-11.849c-9.097.92-11.635 3.065-11.635 6.027 0 2.451 1.692 3.677 4.125 3.677 2.538 0 5.288-1.328 7.51-3.37v-6.334zM278.924 113.728c-3.597 0-6.03-1.327-6.03-5.515V93.606h-3.596v-2.655h3.597v-7.763l3.173-.51v8.273h5.289l.423 2.655h-5.712v14.096c0 2.247.952 3.269 3.385 3.269.74 0 1.586-.103 2.115-.205l.529 2.554c-.635.204-1.798.408-3.173.408zM313.617 113.933c-9.202 0-15.337-6.844-15.337-16.854 0-10.01 6.24-16.955 15.549-16.955 3.808 0 6.98 1.123 9.52 2.757l-.53 3.269c-2.644-1.839-5.605-3.166-8.99-3.166-7.404 0-12.058 5.72-12.058 13.993 0 8.376 4.654 13.994 11.952 13.994 3.596 0 6.875-1.328 9.625-3.371l.53 3.166c-2.54 1.737-6.347 3.167-10.26 3.167zM338.791 113.83c-5.923 0-10.365-4.29-10.365-11.644 0-7.456 4.548-11.644 10.365-11.644 6.03 0 10.578 4.29 10.578 11.644-.106 7.355-4.654 11.645-10.578 11.645zm0-20.632c-4.336 0-7.086 3.37-7.086 8.988 0 5.414 2.855 8.989 7.086 8.989 4.337 0 7.193-3.37 7.193-8.989 0-5.515-2.856-8.988-7.193-8.988zM384.908 113.32V97.896c0-2.86-1.269-4.596-4.23-4.596-2.433 0-4.76 1.43-7.299 3.881v16.241h-3.173V97.998c0-2.86-1.27-4.596-4.23-4.596-2.434 0-4.866 1.43-7.3 3.78v16.24h-3.278v-22.37h2.538l.53 3.167c2.538-2.145 5.076-3.677 8.144-3.677 3.596 0 5.5 1.43 6.346 3.882 2.539-2.248 5.289-3.882 8.462-3.882 4.654 0 6.77 2.554 6.77 6.844v16.036h-3.28v-.102zM404.794 113.626c-2.327 0-4.337-.408-6.03-1.123v8.886l-3.278.51V90.85h2.538l.53 3.166c1.797-1.94 4.124-3.677 7.51-3.677 5.076 0 9.307 3.575 9.307 11.031 0 8.376-4.971 12.257-10.577 12.257zm.952-20.326c-2.75 0-4.866 1.532-6.981 3.983v12.36c1.798.817 3.49 1.328 5.923 1.328 4.125 0 7.404-3.065 7.404-9.295 0-5.414-2.75-8.376-6.346-8.376zM435.68 113.32l-.53-2.962c-2.115 1.94-4.865 3.473-8.144 3.473-4.02 0-6.875-2.145-6.875-6.129 0-5.21 4.442-7.66 14.914-8.682v-1.43c0-3.064-1.904-4.29-4.76-4.29-2.75 0-5.394.817-7.933 1.94l-.423-2.757c2.644-1.124 5.289-1.94 8.568-1.94 5.183 0 7.827 2.348 7.827 6.945v15.934h-2.644v-.102zm-.74-11.849c-9.097.92-11.636 3.065-11.636 6.027 0 2.451 1.692 3.677 4.125 3.677 2.539 0 5.289-1.328 7.51-3.37v-6.334zM460.536 113.32V97.896c0-2.86-1.375-4.596-4.336-4.596-2.433 0-4.972 1.43-7.51 3.881v16.139h-3.28V90.95h2.54l.528 3.27c2.539-2.146 5.183-3.78 8.356-3.78 4.654 0 6.875 2.554 6.875 6.843v15.935h-3.173v.102zM473.123 85.64c-1.269 0-2.327-1.022-2.327-2.248 0-1.226 1.058-2.247 2.327-2.247 1.27 0 2.327 1.021 2.327 2.247s-1.057 2.247-2.327 2.247zm-1.692 27.68V90.95h3.173v22.37h-3.173zM491.634 113.83c-6.03 0-10.472-3.983-10.472-11.644 0-7.15 4.231-11.644 9.943-11.644 6.24 0 9.414 5.005 9.414 11.236v.613H484.44c.106 5.515 2.75 8.784 7.404 8.784 3.068 0 5.818-1.328 8.145-3.269l.529 2.86c-2.327 1.737-5.395 3.065-8.885 3.065zm-7.087-13.89h12.693c-.318-3.984-2.327-6.946-6.135-6.946-3.385 0-5.924 2.45-6.558 6.945zM513.423 113.83c-3.068 0-6.347-.919-8.356-2.042l.529-3.065c2.115 1.328 4.971 2.452 8.038 2.452 3.28 0 5.289-1.328 5.289-3.575s-1.375-3.167-5.923-4.392c-5.183-1.328-7.299-2.86-7.299-6.537 0-3.473 3.068-6.027 7.933-6.027 2.75 0 5.183.613 7.193 1.532l-.529 2.963c-2.115-1.124-4.442-1.737-6.77-1.737-3.173 0-4.653 1.328-4.653 3.166 0 1.84 1.269 2.758 5.182 3.78 5.5 1.43 8.145 3.166 8.145 7.048-.212 3.983-3.49 6.435-8.78 6.435z"/></g></g></svg>
